<?xml version="1.0" encoding="utf-8"?>
<!-- Uploaded to: SVG Repo, www.svgrepo.com, Generator: SVG Repo Mixer Tools -->
<svg width="800px" height="800px" viewBox="0 0 1024 1024" class="icon"  version="1.1" xmlns="http://www.w3.org/2000/svg"><path d="M993.763 493.538v35c0 13.331-6.04 26.664-18.135 37.137-140.15 121.422-280.35 242.795-420.49 364.219-11.814 10.237-25.813 15.501-42.454 15.501v-35c16.643 0 30.64-5.264 42.454-15.501 140.141-121.424 280.336-242.802 420.49-364.217 12.095-10.475 18.135-23.803 18.135-37.139z" fill="#A19FA0" /><path d="M30.239 528.367v-3.5-1.75-3.5-3.5-1.75-3.5-3.5-1.75-3.5-3.5-1.75-3.5c0 14.707 6.701 29.313 19.037 40.019 138.449 120.064 277.049 239.996 415.562 360.02 13.002 11.26 28.74 16.466 47.852 16.994v35c-19.108-0.528-34.85-5.734-47.852-16.994C326.325 808.382 187.725 688.45 49.276 568.386c-12.337-10.705-19.037-25.312-19.037-40.019z" fill="#A19FA0" /><path d="M510.786 76.601c16.263 0 32.546 5.362 44.946 16.097 139.95 121.188 279.901 242.376 419.819 363.586 24.241 20.995 24.295 53.413 0.079 74.397-140.15 121.42-280.35 242.796-420.489 364.217-11.815 10.239-25.813 15.502-42.452 15.502-19.109-0.528-34.852-5.734-47.854-16.994-138.511-120.024-277.111-239.956-415.56-360.02-19.581-16.988-24.96-43.81-11.895-65.251 3.919-6.438 8.669-11.829 14.465-16.849C189.954 331.734 328.024 212.152 466.107 92.567c12.296-10.64 28.478-15.966 44.679-15.966z" fill="#DEDDD9" /><path d="M498.701 312.001v-16.8c0 18.958 0.004 37.917 0.004 56.874v16.8c0.002-18.957-0.004-37.915-0.004-56.874z" fill="#4E4C4A" /><path d="M498.707 352.073v16.8c0-18.955-0.004-37.913-0.004-56.874v-16.8c-0.002 18.961 0.004 37.92 0.004 56.874" fill="#4E4C4A" /><path d="M525.391 371.131v16.8c0 22.761-0.014 45.523-0.033 68.281v-16.8c0.02-22.758 0.033-45.519 0.033-68.281z" fill="#4E4C4A" /><path d="M525.391 371.131v16.8c0 22.761-0.014 45.523-0.033 68.281v-16.8c0.02-22.758 0.033-45.519 0.033-68.281" fill="#4E4C4A" /><path d="M498.699 416.392v-16.8c0 13.247 0.005 26.495 0.027 39.742 0.011 6.303 5.395 10.564 13.146 10.606 8.007 0 13.486-4.139 13.486-10.527v16.8c0 6.389-5.479 10.527-13.486 10.527-7.752-0.043-13.135-4.301-13.146-10.606a22890.26 22890.26 0 0 1-0.027-39.742z" fill="#4E4C4A" /><path d="M525.357 439.413v16.8c0 0.226-0.006 0.446-0.021 0.666v-16.8a9.15 9.15 0 0 0 0.021-0.666" fill="#4E4C4A" /><path d="M525.337 440.079v16.8c-0.133 2.138-0.896 4.004-2.175 5.52v-16.8c1.279-1.516 2.044-3.381 2.175-5.52" fill="#4E4C4A" /><path d="M523.163 445.599v16.8a10.432 10.432 0 0 1-2.368 2.055v-16.8a10.482 10.482 0 0 0 2.368-2.055M520.794 447.651v16.8c-0.763 0.487-1.609 0.902-2.531 1.24v-16.8a12.915 12.915 0 0 0 2.531-1.24" fill="#4E4C4A" /><path d="M518.265 448.893v16.8a16.813 16.813 0 0 1-3.537 0.861v-16.8a16.843 16.843 0 0 0 3.537-0.861M514.727 449.754v16.8c-0.909 0.123-1.864 0.186-2.856 0.186-7.752-0.043-13.135-4.301-13.146-10.606a23930.26 23930.26 0 0 1-0.027-39.741v-16.8c0 13.247 0.005 26.495 0.027 39.742 0.011 6.303 5.395 10.564 13.146 10.606a21.511 21.511 0 0 0 2.856-0.187" fill="#4E4C4A" /><path d="M511.947 254.423c4.261 0 8.287 1.624 11.042 4.837 1.391 1.634 2.299 3.999 2.299 6.033 0.121 58.042 0.121 116.085 0.07 174.12 0 6.389-5.478 10.527-13.485 10.527-7.752-0.044-13.135-4.304-13.146-10.606-0.049-29.086-0.02-58.173-0.02-87.26 0-28.433-0.009-56.874 0-85.313 0-5.691 3.186-10.126 8.295-11.619a17.62 17.62 0 0 1 4.945-0.719z" fill="#7B7A7A" /><path d="M697.339 465.697v16.8c0-27.017-8.388-52.704-23.895-77.116-23.87-37.571-60.037-62.284-106.858-75.623-8.967-2.56-11.931-5.603-11.931-12.338v-16.8c0 6.735 2.964 9.779 11.931 12.338 46.821 13.339 82.988 38.051 106.858 75.624 15.507 24.411 23.895 50.098 23.895 77.115z" fill="#4E4C4A" /><path d="M697.339 465.697v16.8c0-27.017-8.388-52.704-23.895-77.116-23.87-37.571-60.037-62.284-106.858-75.623-8.967-2.56-11.931-5.603-11.931-12.338v-16.8c0 6.735 2.964 9.779 11.931 12.338 46.821 13.339 82.988 38.051 106.858 75.624 15.507 24.411 23.895 50.098 23.895 77.115" fill="#4E4C4A" /><path d="M469.935 300.534v16.8c0 4.868-3.306 9.773-9.724 11.665-6.491 1.911-12.994 3.823-19.303 6.136-33.708 12.369-61.659 31.121-81.478 57.929-22.027 29.798-33.432 60.084-33.432 90.423v-16.8c0-30.338 11.405-60.625 33.432-90.423 19.817-26.809 47.77-45.559 81.478-57.929 6.31-2.313 12.812-4.225 19.303-6.136 6.417-1.892 9.724-6.798 9.724-11.665z" fill="#4E4C4A" /><path d="M469.935 300.534v16.8c0 0.218-0.007 0.434-0.02 0.649v-16.8c0.013-0.215 0.02-0.432 0.02-0.649M469.915 301.183v16.8c-0.142 2.337-1.043 4.653-2.685 6.606v-16.8c1.642-1.954 2.543-4.268 2.685-6.606M467.23 307.79v16.8c-0.811 0.963-1.8 1.84-2.968 2.589v-16.8a13.15 13.15 0 0 0 2.968-2.589M464.262 310.377v16.8a15.287 15.287 0 0 1-2.981 1.467v-16.8a15.315 15.315 0 0 0 2.981-1.467M461.28 311.846v16.8c-0.346 0.125-0.703 0.243-1.069 0.353-6.491 1.911-12.994 3.823-19.303 6.136a3.773 3.773 0 0 1-0.178 0.064v-16.8l0.178-0.064c6.31-2.313 12.812-4.225 19.303-6.136 0.366-0.11 0.723-0.227 1.069-0.353" fill="#4E4C4A" /><path d="M440.73 318.399v16.8c-14.313 5.266-27.587 11.683-39.638 19.382v-16.8c12.051-7.699 25.325-14.116 39.638-19.382M401.092 337.781v16.8c-13.445 8.589-25.368 18.773-35.515 30.729v-16.8c10.147-11.956 22.07-22.14 35.515-30.729M365.577 368.511v16.8a146.51 146.51 0 0 0-6.147 7.752c-20.217 27.348-31.482 55.106-33.201 82.939v-16.8c1.718-27.832 12.984-55.591 33.201-82.939a145.996 145.996 0 0 1 6.147-7.752M326.229 459.201v16.8a123.009 123.009 0 0 0-0.231 7.484v-16.8c0-2.494 0.08-4.989 0.231-7.484" fill="#4E4C4A" /><path d="M724.27 453.704v16.8c0 0.19-0.001 0.376-0.003 0.558-0.232 95.902-64.06 168.779-157.53 189.44-19.337 4.275-38.221 6.272-56.426 6.272-100.678 0-180.729-61.117-203.597-136.36-4.677-15.383-6.982-30.912-6.982-46.525v-16.8c0 15.613 2.305 31.144 6.982 46.526 22.867 75.243 102.919 136.36 203.597 136.36 18.206 0 37.087-1.999 56.426-6.272 93.473-20.663 157.298-93.539 157.53-189.44 0.002-0.186 0.003-0.372 0.003-0.559z" fill="#4E4C4A" /><path d="M724.27 453.704v16.8a215.806 215.806 0 0 1-0.387 12.875v-16.8a213.927 213.927 0 0 0 0.387-12.875M723.883 466.579v16.8c-2.601 43.04-18.268 80.973-43.722 110.98v-16.8c25.454-30.009 41.12-67.941 43.722-110.98M680.16 577.559v16.8c-12.172 14.349-26.582 26.888-42.872 37.306v-16.801c16.29-10.419 30.7-22.957 42.872-37.305M637.288 614.863v16.801c-12.544 8.021-26.204 14.787-40.815 20.157v-16.8c14.611-5.369 28.271-12.134 40.815-20.158M596.473 635.022v16.801c-9.522 3.498-19.45 6.403-29.736 8.679a269.66 269.66 0 0 1-21.732 3.887v-16.8c7.171-0.979 14.42-2.27 21.732-3.887 10.285-2.275 20.213-5.181 29.736-8.68M545.003 647.59v16.8a256.033 256.033 0 0 1-34.693 2.385c-100.678 0-180.729-61.117-203.597-136.36-4.677-15.383-6.982-30.912-6.982-46.525v-16.8c0 15.613 2.305 31.144 6.982 46.526 22.867 75.243 102.919 136.36 203.597 136.36 11.321 0 22.902-0.773 34.693-2.386" fill="#4E4C4A" /><path d="M456.755 288.923c2.646 0 5.278 0.573 7.79 2.184 8.557 5.491 6.784 17.818-4.334 21.091-6.491 1.911-12.994 3.823-19.303 6.136-33.708 12.369-61.659 31.121-81.478 57.929-42.367 57.31-45.429 116.425-3.657 174.241 36.139 50.012 88.871 75.53 154.074 75.53 7.105 0 14.354-0.304 21.751-0.911 84.39-6.939 151.411-64.162 163.789-136.703 6.047-35.435-2.146-68.675-21.943-99.84-23.87-37.572-60.038-62.285-106.858-75.624-9.546-2.724-12.287-5.998-11.895-13.688 0.281-5.622 5.312-9.769 11.803-10.021a33.62 33.62 0 0 1 1.343-0.028c8.012 0 15.18 2.891 22.286 5.422 53.847 19.168 92.726 52.01 116.696 97.832 12.297 23.5 17.599 48.467 17.45 61.788-0.232 95.902-64.06 168.779-157.53 189.44-19.338 4.274-38.222 6.272-56.427 6.272-100.678 0-180.729-61.117-203.598-136.36-7.399-24.33-8.86-49.026-4.656-73.843 9.867-58.226 45.541-101.742 102.512-132.706 14.083-7.647 29.414-13.227 45.422-17.171 2.214-0.548 4.493-0.97 6.763-0.97z" fill="#7B7A7A" /></svg>